<mxfile host="app.diagrams.net" modified="2021-10-07T03:52:44.904Z" agent="5.0 (Windows NT 10.0; Win64; x64) AppleWebKit/537.36 (KHTML, like Gecko) Chrome/94.0.4606.71 Safari/537.36" etag="Zh-LoCeE-P9gSmqOym4K" version="15.4.3" type="github">
  <diagram id="d6sRK6B-65cKQzei_AT7" name="Page-1">
    <mxGraphModel dx="1303" dy="727" grid="1" gridSize="10" guides="1" tooltips="1" connect="1" arrows="1" fold="1" page="1" pageScale="1" pageWidth="827" pageHeight="1169" math="0" shadow="0">
      <root>
        <mxCell id="0" />
        <mxCell id="1" parent="0" />
        <mxCell id="-cEUDzBdaLsqztbyXgd9-5" style="edgeStyle=orthogonalEdgeStyle;rounded=0;orthogonalLoop=1;jettySize=auto;html=1;exitX=0.5;exitY=0.5;exitDx=0;exitDy=0;exitPerimeter=0;entryX=0;entryY=0.5;entryDx=0;entryDy=0;" parent="1" source="-cEUDzBdaLsqztbyXgd9-1" target="-cEUDzBdaLsqztbyXgd9-3" edge="1">
          <mxGeometry relative="1" as="geometry" />
        </mxCell>
        <mxCell id="-cEUDzBdaLsqztbyXgd9-1" value="Restaurant Client" style="shape=umlActor;verticalLabelPosition=bottom;verticalAlign=top;html=1;outlineConnect=0;" parent="1" vertex="1">
          <mxGeometry x="60" y="310" width="30" height="60" as="geometry" />
        </mxCell>
        <mxCell id="-ASrVZUdgnG0HL-RRVGB-37" value="" style="edgeStyle=orthogonalEdgeStyle;rounded=0;orthogonalLoop=1;jettySize=auto;html=1;startArrow=classic;startFill=1;" edge="1" parent="1" source="-cEUDzBdaLsqztbyXgd9-2" target="-ASrVZUdgnG0HL-RRVGB-36">
          <mxGeometry relative="1" as="geometry" />
        </mxCell>
        <mxCell id="-cEUDzBdaLsqztbyXgd9-2" value="Profile Service" style="rounded=0;whiteSpace=wrap;html=1;" parent="1" vertex="1">
          <mxGeometry x="540" y="100" width="120" height="60" as="geometry" />
        </mxCell>
        <mxCell id="-ASrVZUdgnG0HL-RRVGB-1" style="edgeStyle=orthogonalEdgeStyle;rounded=0;orthogonalLoop=1;jettySize=auto;html=1;exitX=1;exitY=0.5;exitDx=0;exitDy=0;" edge="1" parent="1" source="-cEUDzBdaLsqztbyXgd9-3" target="-cEUDzBdaLsqztbyXgd9-2">
          <mxGeometry relative="1" as="geometry" />
        </mxCell>
        <mxCell id="-ASrVZUdgnG0HL-RRVGB-4" style="edgeStyle=orthogonalEdgeStyle;rounded=0;orthogonalLoop=1;jettySize=auto;html=1;exitX=1;exitY=0.5;exitDx=0;exitDy=0;entryX=0;entryY=0.75;entryDx=0;entryDy=0;" edge="1" parent="1" source="-cEUDzBdaLsqztbyXgd9-3" target="-ASrVZUdgnG0HL-RRVGB-2">
          <mxGeometry relative="1" as="geometry" />
        </mxCell>
        <mxCell id="-ASrVZUdgnG0HL-RRVGB-13" style="edgeStyle=orthogonalEdgeStyle;rounded=0;orthogonalLoop=1;jettySize=auto;html=1;exitX=1;exitY=0.5;exitDx=0;exitDy=0;entryX=0;entryY=0.5;entryDx=0;entryDy=0;" edge="1" parent="1" source="-cEUDzBdaLsqztbyXgd9-3" target="-ASrVZUdgnG0HL-RRVGB-12">
          <mxGeometry relative="1" as="geometry" />
        </mxCell>
        <mxCell id="-ASrVZUdgnG0HL-RRVGB-39" style="edgeStyle=orthogonalEdgeStyle;rounded=0;orthogonalLoop=1;jettySize=auto;html=1;exitX=1;exitY=0.5;exitDx=0;exitDy=0;entryX=0;entryY=0.5;entryDx=0;entryDy=0;startArrow=classic;startFill=1;" edge="1" parent="1" source="-cEUDzBdaLsqztbyXgd9-3" target="-ASrVZUdgnG0HL-RRVGB-38">
          <mxGeometry relative="1" as="geometry" />
        </mxCell>
        <mxCell id="-ASrVZUdgnG0HL-RRVGB-61" style="edgeStyle=orthogonalEdgeStyle;rounded=0;orthogonalLoop=1;jettySize=auto;html=1;exitX=1;exitY=0.5;exitDx=0;exitDy=0;entryX=0.5;entryY=0;entryDx=0;entryDy=0;startArrow=classic;startFill=1;" edge="1" parent="1" source="-cEUDzBdaLsqztbyXgd9-3" target="-ASrVZUdgnG0HL-RRVGB-57">
          <mxGeometry relative="1" as="geometry" />
        </mxCell>
        <mxCell id="-cEUDzBdaLsqztbyXgd9-3" value="Gateway" style="rounded=0;whiteSpace=wrap;html=1;" parent="1" vertex="1">
          <mxGeometry x="240" y="100" width="120" height="330" as="geometry" />
        </mxCell>
        <mxCell id="-ASrVZUdgnG0HL-RRVGB-17" value="" style="edgeStyle=orthogonalEdgeStyle;rounded=0;orthogonalLoop=1;jettySize=auto;html=1;" edge="1" parent="1" source="-ASrVZUdgnG0HL-RRVGB-2" target="-ASrVZUdgnG0HL-RRVGB-16">
          <mxGeometry relative="1" as="geometry" />
        </mxCell>
        <mxCell id="-ASrVZUdgnG0HL-RRVGB-31" style="edgeStyle=orthogonalEdgeStyle;rounded=0;orthogonalLoop=1;jettySize=auto;html=1;exitX=0.5;exitY=1;exitDx=0;exitDy=0;entryX=0;entryY=0.5;entryDx=0;entryDy=0;entryPerimeter=0;" edge="1" parent="1" source="-ASrVZUdgnG0HL-RRVGB-2" target="-ASrVZUdgnG0HL-RRVGB-30">
          <mxGeometry relative="1" as="geometry" />
        </mxCell>
        <mxCell id="-ASrVZUdgnG0HL-RRVGB-2" value="Restaurant Service" style="rounded=0;whiteSpace=wrap;html=1;" vertex="1" parent="1">
          <mxGeometry x="530" y="380" width="120" height="60" as="geometry" />
        </mxCell>
        <mxCell id="-ASrVZUdgnG0HL-RRVGB-5" value="Cache DB" style="shape=cylinder3;whiteSpace=wrap;html=1;boundedLbl=1;backgroundOutline=1;size=15;" vertex="1" parent="1">
          <mxGeometry x="750" y="320" width="60" height="80" as="geometry" />
        </mxCell>
        <mxCell id="-ASrVZUdgnG0HL-RRVGB-6" value="Search Cluster" style="ellipse;shape=cloud;whiteSpace=wrap;html=1;" vertex="1" parent="1">
          <mxGeometry x="720" y="170" width="120" height="80" as="geometry" />
        </mxCell>
        <mxCell id="-ASrVZUdgnG0HL-RRVGB-10" style="edgeStyle=orthogonalEdgeStyle;rounded=0;orthogonalLoop=1;jettySize=auto;html=1;exitX=0.5;exitY=0.5;exitDx=0;exitDy=0;exitPerimeter=0;entryX=0;entryY=0.5;entryDx=0;entryDy=0;" edge="1" parent="1" source="-ASrVZUdgnG0HL-RRVGB-9" target="-cEUDzBdaLsqztbyXgd9-3">
          <mxGeometry relative="1" as="geometry" />
        </mxCell>
        <mxCell id="-ASrVZUdgnG0HL-RRVGB-9" value="Normal Client" style="shape=umlActor;verticalLabelPosition=bottom;verticalAlign=top;html=1;outlineConnect=0;" vertex="1" parent="1">
          <mxGeometry x="70" y="110" width="30" height="60" as="geometry" />
        </mxCell>
        <mxCell id="-ASrVZUdgnG0HL-RRVGB-14" style="edgeStyle=orthogonalEdgeStyle;rounded=0;orthogonalLoop=1;jettySize=auto;html=1;exitX=1;exitY=0.5;exitDx=0;exitDy=0;entryX=0.16;entryY=0.55;entryDx=0;entryDy=0;entryPerimeter=0;" edge="1" parent="1" source="-ASrVZUdgnG0HL-RRVGB-12" target="-ASrVZUdgnG0HL-RRVGB-6">
          <mxGeometry relative="1" as="geometry" />
        </mxCell>
        <mxCell id="-ASrVZUdgnG0HL-RRVGB-15" style="edgeStyle=orthogonalEdgeStyle;rounded=0;orthogonalLoop=1;jettySize=auto;html=1;exitX=1;exitY=0.5;exitDx=0;exitDy=0;entryX=0;entryY=0;entryDx=0;entryDy=52.5;entryPerimeter=0;" edge="1" parent="1" source="-ASrVZUdgnG0HL-RRVGB-12" target="-ASrVZUdgnG0HL-RRVGB-5">
          <mxGeometry relative="1" as="geometry" />
        </mxCell>
        <mxCell id="-ASrVZUdgnG0HL-RRVGB-12" value="Search Service" style="rounded=0;whiteSpace=wrap;html=1;" vertex="1" parent="1">
          <mxGeometry x="550" y="245" width="120" height="60" as="geometry" />
        </mxCell>
        <mxCell id="-ASrVZUdgnG0HL-RRVGB-16" value="Restaurant DB" style="shape=cylinder3;whiteSpace=wrap;html=1;boundedLbl=1;backgroundOutline=1;size=15;" vertex="1" parent="1">
          <mxGeometry x="680" y="450" width="60" height="80" as="geometry" />
        </mxCell>
        <mxCell id="-ASrVZUdgnG0HL-RRVGB-34" style="edgeStyle=orthogonalEdgeStyle;rounded=0;orthogonalLoop=1;jettySize=auto;html=1;exitX=0.5;exitY=0;exitDx=0;exitDy=0;entryX=0.993;entryY=0.502;entryDx=0;entryDy=0;entryPerimeter=0;startArrow=classic;startFill=1;" edge="1" parent="1" source="-ASrVZUdgnG0HL-RRVGB-28" target="-ASrVZUdgnG0HL-RRVGB-6">
          <mxGeometry relative="1" as="geometry" />
        </mxCell>
        <mxCell id="-ASrVZUdgnG0HL-RRVGB-35" style="edgeStyle=orthogonalEdgeStyle;rounded=0;orthogonalLoop=1;jettySize=auto;html=1;exitX=0;exitY=0.5;exitDx=0;exitDy=0;entryX=1;entryY=0.5;entryDx=0;entryDy=0;entryPerimeter=0;startArrow=classic;startFill=1;" edge="1" parent="1" source="-ASrVZUdgnG0HL-RRVGB-28" target="-ASrVZUdgnG0HL-RRVGB-16">
          <mxGeometry relative="1" as="geometry" />
        </mxCell>
        <mxCell id="-ASrVZUdgnG0HL-RRVGB-28" value="DataService" style="rounded=0;whiteSpace=wrap;html=1;" vertex="1" parent="1">
          <mxGeometry x="827" y="460" width="120" height="60" as="geometry" />
        </mxCell>
        <mxCell id="-ASrVZUdgnG0HL-RRVGB-32" style="edgeStyle=orthogonalEdgeStyle;rounded=0;orthogonalLoop=1;jettySize=auto;html=1;exitX=1;exitY=0.5;exitDx=0;exitDy=0;exitPerimeter=0;entryX=0.5;entryY=1;entryDx=0;entryDy=0;startArrow=classic;startFill=1;" edge="1" parent="1" source="-ASrVZUdgnG0HL-RRVGB-30" target="-ASrVZUdgnG0HL-RRVGB-28">
          <mxGeometry relative="1" as="geometry" />
        </mxCell>
        <mxCell id="-ASrVZUdgnG0HL-RRVGB-30" value="" style="verticalLabelPosition=bottom;verticalAlign=top;html=1;shape=mxgraph.flowchart.parallel_mode;pointerEvents=1" vertex="1" parent="1">
          <mxGeometry x="655" y="560" width="95" height="40" as="geometry" />
        </mxCell>
        <mxCell id="-ASrVZUdgnG0HL-RRVGB-36" value="Profile DB" style="shape=cylinder3;whiteSpace=wrap;html=1;boundedLbl=1;backgroundOutline=1;size=15;" vertex="1" parent="1">
          <mxGeometry x="720" y="90" width="60" height="80" as="geometry" />
        </mxCell>
        <mxCell id="-ASrVZUdgnG0HL-RRVGB-44" style="edgeStyle=orthogonalEdgeStyle;rounded=0;orthogonalLoop=1;jettySize=auto;html=1;exitX=0.5;exitY=1;exitDx=0;exitDy=0;entryX=0.5;entryY=0;entryDx=0;entryDy=0;entryPerimeter=0;startArrow=classic;startFill=1;" edge="1" parent="1" source="-ASrVZUdgnG0HL-RRVGB-38" target="-ASrVZUdgnG0HL-RRVGB-43">
          <mxGeometry relative="1" as="geometry" />
        </mxCell>
        <mxCell id="-ASrVZUdgnG0HL-RRVGB-56" style="edgeStyle=orthogonalEdgeStyle;rounded=0;orthogonalLoop=1;jettySize=auto;html=1;exitX=0.5;exitY=0;exitDx=0;exitDy=0;entryX=0.07;entryY=0.4;entryDx=0;entryDy=0;entryPerimeter=0;dashed=1;startArrow=classic;startFill=1;" edge="1" parent="1" source="-ASrVZUdgnG0HL-RRVGB-38" target="-ASrVZUdgnG0HL-RRVGB-55">
          <mxGeometry relative="1" as="geometry" />
        </mxCell>
        <mxCell id="-ASrVZUdgnG0HL-RRVGB-38" value="Order Service" style="rounded=0;whiteSpace=wrap;html=1;" vertex="1" parent="1">
          <mxGeometry x="550" y="700" width="120" height="60" as="geometry" />
        </mxCell>
        <mxCell id="-ASrVZUdgnG0HL-RRVGB-41" value="" style="edgeStyle=orthogonalEdgeStyle;rounded=0;orthogonalLoop=1;jettySize=auto;html=1;startArrow=classic;startFill=1;" edge="1" parent="1" source="-ASrVZUdgnG0HL-RRVGB-40" target="-ASrVZUdgnG0HL-RRVGB-38">
          <mxGeometry relative="1" as="geometry" />
        </mxCell>
        <mxCell id="-ASrVZUdgnG0HL-RRVGB-40" value="Orders DB" style="shape=cylinder3;whiteSpace=wrap;html=1;boundedLbl=1;backgroundOutline=1;size=15;" vertex="1" parent="1">
          <mxGeometry x="770" y="690" width="60" height="80" as="geometry" />
        </mxCell>
        <mxCell id="-ASrVZUdgnG0HL-RRVGB-43" value="" style="verticalLabelPosition=bottom;verticalAlign=top;html=1;shape=mxgraph.flowchart.parallel_mode;pointerEvents=1" vertex="1" parent="1">
          <mxGeometry x="565" y="840" width="95" height="40" as="geometry" />
        </mxCell>
        <mxCell id="-ASrVZUdgnG0HL-RRVGB-46" style="edgeStyle=orthogonalEdgeStyle;rounded=0;orthogonalLoop=1;jettySize=auto;html=1;exitX=0.5;exitY=0;exitDx=0;exitDy=0;entryX=0.5;entryY=1;entryDx=0;entryDy=0;entryPerimeter=0;startArrow=classic;startFill=1;" edge="1" parent="1" source="-ASrVZUdgnG0HL-RRVGB-45" target="-ASrVZUdgnG0HL-RRVGB-43">
          <mxGeometry relative="1" as="geometry" />
        </mxCell>
        <mxCell id="-ASrVZUdgnG0HL-RRVGB-52" style="edgeStyle=orthogonalEdgeStyle;rounded=0;orthogonalLoop=1;jettySize=auto;html=1;exitX=1;exitY=0.5;exitDx=0;exitDy=0;entryX=0;entryY=0.3333333333333333;entryDx=0;entryDy=0;entryPerimeter=0;startArrow=classic;startFill=1;dashed=1;" edge="1" parent="1" source="-ASrVZUdgnG0HL-RRVGB-45" target="-ASrVZUdgnG0HL-RRVGB-48">
          <mxGeometry relative="1" as="geometry" />
        </mxCell>
        <mxCell id="-ASrVZUdgnG0HL-RRVGB-53" style="edgeStyle=orthogonalEdgeStyle;rounded=0;orthogonalLoop=1;jettySize=auto;html=1;exitX=1;exitY=0.5;exitDx=0;exitDy=0;entryX=0;entryY=0.3333333333333333;entryDx=0;entryDy=0;entryPerimeter=0;startArrow=classic;startFill=1;dashed=1;" edge="1" parent="1" source="-ASrVZUdgnG0HL-RRVGB-45" target="-ASrVZUdgnG0HL-RRVGB-49">
          <mxGeometry relative="1" as="geometry" />
        </mxCell>
        <mxCell id="-ASrVZUdgnG0HL-RRVGB-54" style="edgeStyle=orthogonalEdgeStyle;rounded=0;orthogonalLoop=1;jettySize=auto;html=1;exitX=1;exitY=0.5;exitDx=0;exitDy=0;entryX=0;entryY=0.3333333333333333;entryDx=0;entryDy=0;entryPerimeter=0;startArrow=classic;startFill=1;dashed=1;" edge="1" parent="1" source="-ASrVZUdgnG0HL-RRVGB-45" target="-ASrVZUdgnG0HL-RRVGB-50">
          <mxGeometry relative="1" as="geometry" />
        </mxCell>
        <mxCell id="-ASrVZUdgnG0HL-RRVGB-45" value="Notification Service" style="rounded=0;whiteSpace=wrap;html=1;" vertex="1" parent="1">
          <mxGeometry x="560" y="970" width="120" height="60" as="geometry" />
        </mxCell>
        <mxCell id="-ASrVZUdgnG0HL-RRVGB-47" value="Publisher / Subscriber&amp;nbsp;" style="text;html=1;strokeColor=none;fillColor=none;align=center;verticalAlign=middle;whiteSpace=wrap;rounded=0;" vertex="1" parent="1">
          <mxGeometry x="490" y="840" width="60" height="30" as="geometry" />
        </mxCell>
        <mxCell id="-ASrVZUdgnG0HL-RRVGB-48" value="Consumer" style="shape=umlActor;verticalLabelPosition=bottom;verticalAlign=top;html=1;outlineConnect=0;" vertex="1" parent="1">
          <mxGeometry x="1080" y="830" width="30" height="60" as="geometry" />
        </mxCell>
        <mxCell id="-ASrVZUdgnG0HL-RRVGB-49" value="Delivery Agent" style="shape=umlActor;verticalLabelPosition=bottom;verticalAlign=top;html=1;outlineConnect=0;" vertex="1" parent="1">
          <mxGeometry x="1080" y="940" width="30" height="60" as="geometry" />
        </mxCell>
        <mxCell id="-ASrVZUdgnG0HL-RRVGB-50" value="Restaurant" style="shape=umlActor;verticalLabelPosition=bottom;verticalAlign=top;html=1;outlineConnect=0;" vertex="1" parent="1">
          <mxGeometry x="1080" y="1040" width="30" height="60" as="geometry" />
        </mxCell>
        <mxCell id="-ASrVZUdgnG0HL-RRVGB-55" value="External Payment Gateway" style="ellipse;shape=cloud;whiteSpace=wrap;html=1;" vertex="1" parent="1">
          <mxGeometry x="920" y="620" width="120" height="80" as="geometry" />
        </mxCell>
        <mxCell id="-ASrVZUdgnG0HL-RRVGB-60" value="" style="edgeStyle=orthogonalEdgeStyle;rounded=0;orthogonalLoop=1;jettySize=auto;html=1;startArrow=classic;startFill=1;" edge="1" parent="1" source="-ASrVZUdgnG0HL-RRVGB-57" target="-ASrVZUdgnG0HL-RRVGB-47">
          <mxGeometry relative="1" as="geometry" />
        </mxCell>
        <mxCell id="-ASrVZUdgnG0HL-RRVGB-57" value="Order Fullfillment Service" style="rounded=0;whiteSpace=wrap;html=1;" vertex="1" parent="1">
          <mxGeometry x="280" y="830" width="120" height="60" as="geometry" />
        </mxCell>
        <mxCell id="-ASrVZUdgnG0HL-RRVGB-64" style="edgeStyle=orthogonalEdgeStyle;rounded=0;orthogonalLoop=1;jettySize=auto;html=1;exitX=1;exitY=0.5;exitDx=0;exitDy=0;entryX=0;entryY=0.5;entryDx=0;entryDy=0;entryPerimeter=0;startArrow=classic;startFill=1;" edge="1" parent="1" source="-ASrVZUdgnG0HL-RRVGB-62" target="-ASrVZUdgnG0HL-RRVGB-43">
          <mxGeometry relative="1" as="geometry" />
        </mxCell>
        <mxCell id="-ASrVZUdgnG0HL-RRVGB-70" value="" style="edgeStyle=orthogonalEdgeStyle;rounded=0;orthogonalLoop=1;jettySize=auto;html=1;startArrow=classic;startFill=1;" edge="1" parent="1" source="-ASrVZUdgnG0HL-RRVGB-62" target="-ASrVZUdgnG0HL-RRVGB-67">
          <mxGeometry relative="1" as="geometry" />
        </mxCell>
        <mxCell id="-ASrVZUdgnG0HL-RRVGB-62" value="Dispatch Service" style="rounded=0;whiteSpace=wrap;html=1;" vertex="1" parent="1">
          <mxGeometry x="280" y="1080" width="120" height="60" as="geometry" />
        </mxCell>
        <mxCell id="-ASrVZUdgnG0HL-RRVGB-66" style="edgeStyle=orthogonalEdgeStyle;rounded=0;orthogonalLoop=1;jettySize=auto;html=1;exitX=0.5;exitY=0.5;exitDx=0;exitDy=0;exitPerimeter=0;entryX=0;entryY=0.5;entryDx=0;entryDy=0;startArrow=classic;startFill=1;" edge="1" parent="1" source="-ASrVZUdgnG0HL-RRVGB-65" target="-ASrVZUdgnG0HL-RRVGB-62">
          <mxGeometry relative="1" as="geometry" />
        </mxCell>
        <mxCell id="-ASrVZUdgnG0HL-RRVGB-65" value="DeliveryAgent" style="shape=umlActor;verticalLabelPosition=bottom;verticalAlign=top;html=1;outlineConnect=0;" vertex="1" parent="1">
          <mxGeometry x="110" y="1070" width="30" height="60" as="geometry" />
        </mxCell>
        <mxCell id="-ASrVZUdgnG0HL-RRVGB-67" value="Orders DB" style="shape=cylinder3;whiteSpace=wrap;html=1;boundedLbl=1;backgroundOutline=1;size=15;" vertex="1" parent="1">
          <mxGeometry x="280" y="1230" width="60" height="80" as="geometry" />
        </mxCell>
      </root>
    </mxGraphModel>
  </diagram>
</mxfile>
